<svg id="Layer_1" data-name="Layer 1" xmlns="http://www.w3.org/2000/svg" viewBox="0 0 1242 91.28"><defs><style>.cls-1,.cls-5{fill:none;}.cls-1{stroke:#231f20;stroke-miterlimit:10;}.cls-2{fill:#231f20;}.cls-3{fill:#ed2a91;}.cls-4{fill:#fff;}</style></defs><title>banner</title><path class="cls-1" d="M222.41,91.28H77.93C98.67,30.09,155,1.53,194.71,40.75,207.19,53.08,215.79,71.23,222.41,91.28Z"/><path class="cls-2" d="M639.59,91.28q7.34-2.86,15.12-5.29C706.94,69.74,763.3,72.32,816,91.28Z"/><path class="cls-3" d="M222.41,91.28H77.93C98.67,30.09,155,1.53,194.71,40.75,207.19,53.08,215.79,71.23,222.41,91.28Z"/><path class="cls-4" d="M346.07,91.28H325.42C297.69,69.79,288.84,29.87,311.88,0h27.77C329.37,23.29,319,62.26,346.07,91.28Z"/><path class="cls-2" d="M325.42,91.28H294.71c-31.9-39-26.16-71-15.32-91.28h32.49C288.84,29.87,297.69,69.79,325.42,91.28Z"/><path class="cls-2" d="M271.32,91.28H239.44C231.13,53.73,219.73,18.81,188.86,0h41C244.2,18.49,261.72,48.25,271.32,91.28Z"/><path class="cls-4" d="M239.44,91.28h-17c-6.62-20-15.22-38.2-27.7-50.53C155,1.53,98.67,30.09,77.93,91.28H40.52C61,60.55,62.49,20.92,85.88,0h103C219.73,18.81,231.13,53.73,239.44,91.28Z"/><path class="cls-2" d="M85.88,0C62.49,20.92,61,60.55,40.52,91.28H6.82C17.34,71.23,19.49,44.63,28.71,25A68.16,68.16,0,0,1,49.32,0Z"/><path class="cls-4" d="M49.32,0A68.16,68.16,0,0,0,28.71,25C19.49,44.63,17.34,71.23,6.82,91.28H0V0Z"/><path class="cls-5" d="M222.41,91.28H77.93C98.67,30.09,155,1.53,194.71,40.75,207.19,53.08,215.79,71.23,222.41,91.28Z"/><path class="cls-4" d="M294.71,91.28H271.32c-9.6-43-27.12-72.79-41.5-91.28h49.57C268.55,20.28,262.81,52.25,294.71,91.28Z"/><path class="cls-4" d="M494.37,0c-23.31,6.61-43,15.33-59.56,25.62h0C419.93,26.15,403.73,14.47,403,0Z"/><path class="cls-2" d="M917.76,91.28H842.69C773.82,53.77,698.63,31.11,608,44.76c-39.78,6-67.57,23.21-88.25,46.52H346.07c-27-29-16.7-68-6.42-91.28H403c.7,14.47,16.9,26.15,31.77,25.62h0c16.6-10.29,36.25-19,59.56-25.62H704C775.33,17.83,847.75,51.37,917.76,91.28Z"/><path class="cls-4" d="M981.72,91.28h-64C847.75,51.37,775.33,17.83,704,0h91.17C857.28,27.31,922.6,60.41,981.72,91.28Z"/><path class="cls-3" d="M1022.49,91.28H981.72C922.6,60.41,857.28,27.31,795.18,0h103.9C923.78,23.66,966.87,60.63,1022.49,91.28Z"/><path class="cls-2" d="M1093,91.28h-70.53C966.87,60.63,923.78,23.66,899.08,0h102.31C1016.5,23.06,1045.18,58.81,1093,91.28Z"/><path class="cls-4" d="M1176.65,91.28H1093C1045.18,58.81,1016.5,23.06,1001.39,0h80.82c4.8,5.61,9.7,11.43,14.78,17.35l3.39,3.94q1.71,2,3.45,4l1.74,2c1.68,1.9,3.37,3.81,5.08,5.71.31.34.61.68.92,1,.7.79,1.42,1.58,2.15,2.37,4.22,4.61,8.58,9.23,13.13,13.81,1,1,2,2,3.07,3.06A297.85,297.85,0,0,0,1176.65,91.28Z"/><path class="cls-3" d="M1157.3,0q-2.33,2.13-4.38,4.34c-.33.35-.65.69-1,1s-.64.71-.95,1.07-.79.91-1.17,1.37c-.82,1-1.61,2-2.37,3l-.95,1.29c-.22.29-.43.58-.62.86-.66.92-1.29,1.84-1.88,2.76l-.59.91c-.51.8-1,1.6-1.47,2.39q-.39.64-.75,1.29c-.16.29-.32.56-.47.84s-.42.75-.61,1.12-.4.74-.59,1.11-.38.74-.57,1.11a96.08,96.08,0,0,0-6.59,17c-.17.6-.33,1.19-.48,1.75-.41,1.56-.74,3-1,4.23-.07.37-.15.73-.21,1.06-.25,1.22-.42,2.24-.53,3-.06.37-.1.68-.14.94-.06.51-.09.78-.09.78-1-1-2.06-2-3.07-3.06-4.55-4.58-8.91-9.2-13.13-13.81-.73-.79-1.45-1.58-2.15-2.37-.31-.33-.61-.67-.92-1-1.71-1.9-3.4-3.81-5.08-5.71l-1.74-2q-1.74-2-3.45-4L1097,17.35c-5.08-5.92-10-11.74-14.78-17.35Z"/><path class="cls-4" d="M1178.22,91.28h-1.57a297.85,297.85,0,0,1-46.73-38.08s0-.27.09-.78c0-.26.08-.57.14-.94.11-.77.28-1.79.53-3,.06-.33.14-.69.21-1.06.27-1.25.6-2.67,1-4.23.15-.56.31-1.15.48-1.75a96.08,96.08,0,0,1,6.59-17c.19-.37.37-.74.57-1.11s.39-.74.59-1.11.4-.75.61-1.12.31-.55.47-.84.49-.86.75-1.29c.47-.79,1-1.59,1.47-2.39l.59-.91c.59-.92,1.22-1.84,1.88-2.76l.62-.86.95-1.29c.76-1,1.55-2,2.37-3,.38-.46.77-.91,1.17-1.37s.63-.72.95-1.07.63-.69,1-1Q1155,2.13,1157.3,0h14.91C1154.31,27.57,1168.39,69.19,1178.22,91.28Z"/><path class="cls-2" d="M1242,0V91.28h-63.78c-9.83-22.09-23.91-63.71-6-91.28Z"/></svg>