<svg id="Layer_1" data-name="Layer 1" xmlns="http://www.w3.org/2000/svg" viewBox="0 0 360 360"><defs><style>.cls-1{fill:#231f20;}</style></defs><title>icons</title><g id="_6LcSV4" data-name="6LcSV4"><path class="cls-1" d="M0,179.67C.05,80.74,81.25-.08,180.53,0,279.37.08,360.11,81.39,360,180.74c-.11,98.77-81.54,179.42-181,179.26C80.7,359.84-.05,278.5,0,179.67Zm180.78-164c-91.09-.06-165,72.77-165.12,162.71-.13,91.76,72.5,165.85,162.71,166,92.16.13,165.93-72.57,166-163.57C344.4,89.31,271.49,15.71,180.78,15.65Z"/><path class="cls-1" d="M289.46,80.43c-2.34,8.77-8.56,10.91-15.69,12-32.82,5.07-50.17,27.2-61.47,55.92a10.31,10.31,0,0,0-.42,2.79c12.28-3.22,24.44-7.37,36.94-9.34,8-1.27,16.84-.41,24.88,1.39,14.45,3.24,22.48,14.85,23.65,31.59,3.57,51.06-54.52,95.87-103,79.58-15.4-5.18-26.08-15.41-33.4-31.08-4.71,23.82-21.51,31.77-41.13,33.54-16,1.44-32.43.37-48.42-1.62-7.09-.88-14.35-5.85-20.07-10.69-5.41-4.57-6.16-11.93-2-18.29,4-6.19,10.4-8,17.54-6.7,9.22,1.69,15.71,7.21,19.74,15.44,2.27,4.64,3.73,9.67,5.56,14.55,10.67,1.08,20.74-4.81,24-14.07,3.47-9.88,1-16.65-9.51-23.31-8.77-5.58-18.15-10.23-26.85-15.91-11.36-7.41-18.72-17.55-16.89-31.89,1.88-14.79,12-23.16,25.25-26.72C115.34,130.36,142,130,166,149.14c18.62-37,50.69-56.51,89.14-67C266,79.22,277.35,75.56,289.46,80.43ZM194.64,212.25c2.85,8.92,4.65,18.38,8.78,26.66,7,14.08,18.75,15.8,29,4.16,15.42-17.44,21.41-38.24,16.13-61.13-4.33-18.8-22.54-23.66-36.51-10.28C200.78,182.5,196.66,196.35,194.64,212.25ZM124.3,139.33c-6.07,2.48-11.94,3.69-16.31,6.92-10.18,7.51-8.86,21.27,3.05,27.86,14.86,8.22,30.39,15.21,45,22.45l2.74-26.94C137.08,176,127.55,168,124.3,139.33Z"/></g></svg>