<svg id="Layer_1" data-name="Layer 1" xmlns="http://www.w3.org/2000/svg" viewBox="0 0 360 360"><defs><style>.cls-1{fill:#231f20;}</style></defs><title>icons</title><g id="LFuI4d"><path class="cls-1" d="M269.73,2.39c54.8,6.48,87.78,43,89.21,98.56,1.36,52.77,1.47,105.65,0,158.41-1.7,59.65-41.24,98.44-101,99.77q-77.83,1.73-155.72,0C41.78,357.86,2.19,318.28.86,257.8Q-.84,180,.86,102.08C2.22,41.68,41.91,2.68,102.43.84,128.21.06,240-1.12,269.73,2.39Zm58.32,132.09c-.17-10.79-.88-21.58-1.36-32.37-1.8-41.1-26.4-67.52-67.24-68.47q-79.58-1.86-159.23,0c-40.18,1-65.81,26.79-66.69,66.89q-1.75,79.58,0,159.23c.92,40,26.84,65.82,66.9,66.69q79.58,1.73,159.23,0c37.28-.79,60.94-21.79,65.49-58.94C328.69,238.75,328.29,149.78,328.05,134.48Z"/><path class="cls-1" d="M179.86,272.88a92.83,92.83,0,1,1,.64-185.65c50.93.21,92.4,42.07,92.28,93.14S230.89,272.92,179.86,272.88Zm-.06-153.15c-32.89.12-60.13,27.4-60.17,60.25,0,33.22,27.69,60.7,60.93,60.38,32.86-.32,59.9-27.8,59.71-60.69S212.62,119.61,179.8,119.73Z"/><path class="cls-1" d="M298,83.6A21.66,21.66,0,1,1,276.4,62,21.85,21.85,0,0,1,298,83.6Z"/></g></svg>