<svg id="Layer_1" data-name="Layer 1" xmlns="http://www.w3.org/2000/svg" viewBox="0 0 360 360"><defs><style>.cls-1{fill:#231f20;}</style></defs><title>icons</title><g id="_9FdNeK" data-name="9FdNeK"><path class="cls-1" d="M359.4,351.18H282.79c0-13.62,0-26.81,0-40,0-28.16.13-56.33-.1-84.49a108.53,108.53,0,0,0-2.1-20.34c-4.18-20.85-17.69-32.42-36.78-32.11-19.68.32-37.34,14.42-40.94,33.39a118.61,118.61,0,0,0-1.63,21.57c-.15,40.3-.07,80.61-.07,121.68H125.33V119.59h75.39v30.86c3-2.65,4.21-3.37,5-4.4,22.86-30.93,54.23-37.52,89.42-29.46,34.46,7.89,53.11,32.16,60.67,65.45a162.17,162.17,0,0,1,3.95,33.89c.46,42.62.2,85.25.18,127.87C359.91,346,359.61,348.24,359.4,351.18Z"/><path class="cls-1" d="M80.7,351.26H5.17V119.79H80.7Z"/><path class="cls-1" d="M43.43,86.84C18.06,87,.16,70.64,0,47.2-.16,24.15,18.08,7,43.14,6.74c24.78-.3,43.07,16.64,43.29,40.08S68.95,86.69,43.43,86.84Z"/></g></svg>