<svg xmlns="http://www.w3.org/2000/svg"><symbol id="icons-society6" viewBox="0 0 360 360"><defs><style>.cls-1{fill:#231f20}</style></defs><g id="_6LcSV4"><path d="M0 179.67C.05 80.74 81.25-.08 180.53 0 279.37.08 360.11 81.39 360 180.74c-.11 98.77-81.54 179.42-181 179.26C80.7 359.84-.05 278.5 0 179.67zm180.78-164c-91.09-.06-165 72.77-165.12 162.71-.13 91.76 72.5 165.85 162.71 166 92.16.13 165.93-72.57 166-163.57.03-91.5-72.88-165.1-163.59-165.16z" class="cls-1"/><path d="M289.46 80.43c-2.34 8.77-8.56 10.91-15.69 12-32.82 5.07-50.17 27.2-61.47 55.92a10.31 10.31 0 0 0-.42 2.79c12.28-3.22 24.44-7.37 36.94-9.34 8-1.27 16.84-.41 24.88 1.39 14.45 3.24 22.48 14.85 23.65 31.59 3.57 51.06-54.52 95.87-103 79.58-15.4-5.18-26.08-15.41-33.4-31.08-4.71 23.82-21.51 31.77-41.13 33.54-16 1.44-32.43.37-48.42-1.62-7.09-.88-14.35-5.85-20.07-10.69-5.41-4.57-6.16-11.93-2-18.29 4-6.19 10.4-8 17.54-6.7 9.22 1.69 15.71 7.21 19.74 15.44 2.27 4.64 3.73 9.67 5.56 14.55 10.67 1.08 20.74-4.81 24-14.07 3.47-9.88 1-16.65-9.51-23.31-8.77-5.58-18.15-10.23-26.85-15.91-11.36-7.41-18.72-17.55-16.89-31.89 1.88-14.79 12-23.16 25.25-26.72C115.34 130.36 142 130 166 149.14c18.62-37 50.69-56.51 89.14-67 10.86-2.92 22.21-6.58 34.32-1.71zm-94.82 131.82c2.85 8.92 4.65 18.38 8.78 26.66 7 14.08 18.75 15.8 29 4.16 15.42-17.44 21.41-38.24 16.13-61.13-4.33-18.8-22.54-23.66-36.51-10.28-11.26 10.84-15.38 24.69-17.4 40.59zm-70.34-72.92c-6.07 2.48-11.94 3.69-16.31 6.92-10.18 7.51-8.86 21.27 3.05 27.86 14.86 8.22 30.39 15.21 45 22.45l2.74-26.94c-21.7 6.38-31.23-1.62-34.48-30.29z" class="cls-1"/></g></symbol><symbol id="icons-linkedin" viewBox="0 0 360 360"><defs><style>.cls-1{fill:#231f20}</style></defs><path id="_9FdNeK" d="M359.4 351.18h-76.61v-40c0-28.16.13-56.33-.1-84.49a108.53 108.53 0 0 0-2.1-20.34c-4.18-20.85-17.69-32.42-36.78-32.11-19.68.32-37.34 14.42-40.94 33.39a118.61 118.61 0 0 0-1.63 21.57c-.15 40.3-.07 80.61-.07 121.68h-75.84V119.59h75.39v30.86c3-2.65 4.21-3.37 5-4.4 22.86-30.93 54.23-37.52 89.42-29.46 34.46 7.89 53.11 32.16 60.67 65.45a162.17 162.17 0 0 1 3.95 33.89c.46 42.62.2 85.25.18 127.87-.03 2.2-.33 4.44-.54 7.38zm-278.7.08H5.17V119.79H80.7zM43.43 86.84C18.06 87 .16 70.64 0 47.2-.16 24.15 18.08 7 43.14 6.74c24.78-.3 43.07 16.64 43.29 40.08s-17.48 39.87-43 40.02z" class="cls-1"/></symbol><symbol id="icons-insta" viewBox="0 0 360 360"><defs><style>.cls-1{fill:#231f20}</style></defs><g id="LFuI4d"><path d="M269.73 2.39c54.8 6.48 87.78 43 89.21 98.56 1.36 52.77 1.47 105.65 0 158.41-1.7 59.65-41.24 98.44-101 99.77q-77.83 1.73-155.72 0C41.78 357.86 2.19 318.28.86 257.8q-1.7-77.8 0-155.72C2.22 41.68 41.91 2.68 102.43.84 128.21.06 240-1.12 269.73 2.39zm58.32 132.09c-.17-10.79-.88-21.58-1.36-32.37-1.8-41.1-26.4-67.52-67.24-68.47q-79.58-1.86-159.23 0c-40.18 1-65.81 26.79-66.69 66.89q-1.75 79.58 0 159.23c.92 40 26.84 65.82 66.9 66.69q79.58 1.73 159.23 0c37.28-.79 60.94-21.79 65.49-58.94 3.54-28.76 3.14-117.73 2.9-133.03z" class="cls-1"/><path d="M179.86 272.88a92.83 92.83 0 1 1 .64-185.65c50.93.21 92.4 42.07 92.28 93.14s-41.89 92.55-92.92 92.51zm-.06-153.15c-32.89.12-60.13 27.4-60.17 60.25 0 33.22 27.69 60.7 60.93 60.38 32.86-.32 59.9-27.8 59.71-60.69s-27.65-60.06-60.47-59.94zM298 83.6A21.66 21.66 0 1 1 276.4 62 21.85 21.85 0 0 1 298 83.6z" class="cls-1"/></g></symbol></svg>