<svg id="Layer_1" data-name="Layer 1" xmlns="http://www.w3.org/2000/svg" viewBox="0 0 1242 204.3"><defs><style>.cls-1{fill:none;stroke:#231f20;stroke-miterlimit:10;stroke-width:2px;}.cls-2{fill:#211e1f;}.cls-3{fill:#231f20;}.cls-4{fill:#fff;}.cls-5{fill:#ed2a91;}</style></defs><title>branding pattern</title><path class="cls-1" d="M641.35,129.83s-8.42,16.37-9,35.22c0,0-124.1-47.6-210.75-40.75S313.12,167.23,255.39,179c-80.53,16.46-114.71,5.68-161.12-23.66C63,135.6,33.51,108.78-9,98.34q-2.52-.61-5.1-1.16V-.25l2.73.09L-9,0c.84,0,1.69.09,2.54.16a5.48,5.48,0,0,1,.7,0l2.38.18C-2.26.44-1.13.55,0,.67L2,.88q3.36.39,6.87.91l2.57.4,3.18.54c82,14.54,82,139.54,174.52,156.64S330.27,82.1,423.1,73.3C512,64.87,530,142.56,641.35,129.83Z"/><path class="cls-1" d="M852.33,165.75c-22.33,16.88-55.25,0-55.25,0,14.9-29.83,19.58-67.93,17.46-104.19C810.13-13.73,848.21-39,852-41.39l.31-.17c2.49-1.42,5.07-2.74,7.71-4-.58.67-25.42,30-7.71,91,3.88,13.37,7.13,25.8,9.61,37.25C870.89,124,869.81,152.53,852.33,165.75Z"/><path class="cls-1" d="M891.9,73.3c-11.61,19.81-30,9.37-30,9.37-2.48-11.45-5.73-23.88-9.61-37.25-17.71-60.92,7.13-90.28,7.71-91h0a109.2,109.2,0,0,1,21.58-7.4c-.6.59-21.26,21.67-7.53,47a293.86,293.86,0,0,1,13.1,26.87h0C895.23,40.23,899.73,59.94,891.9,73.3Z"/><path class="cls-1" d="M924.39,15.55c-10,15-36.71,5.55-37.18,5.38h0A293.86,293.86,0,0,0,874.1-5.94c-13.73-25.33,6.93-46.41,7.53-47h0q3.5-.81,7.16-1.42a119.13,119.13,0,0,1,34.36-1s-12.81,6.78-11.92,16.8C912.78-21.15,942.06-11,924.39,15.55Z"/><path class="cls-1" d="M1255.5-127.2v32.12c-23.6-7.83-79.16-20.91-97.49,21.63-23.52,54.58-4.64,121.8-40.23,165.83s-77.47,18-79.73-15.19h0c23.48-34.08,19.3-84.82,13.2-156.5-7.73-91,46.42-88.05,123.78-57.23C1220.2-118.56,1243.74-121.57,1255.5-127.2Z"/><path class="cls-2" d="M648.89,204.3H-9v-106c42.51,10.44,72,37.26,103.27,57,46.41,29.34,80.59,40.12,161.12,23.66,57.73-11.81,79.52-47.89,166.16-54.74S632.3,165,632.3,165C631.84,178.56,635.37,193.35,648.89,204.3Z"/><path class="cls-3" d="M814.54,61.56c2.12,36.26-2.56,74.36-17.46,104.19-7.78,15.6-18.36,28.93-32.21,38.55h-116c-13.52-11-17-25.74-16.59-39.25.63-18.85,9-35.22,9-35.22q7.41-.84,15.38-2.24C765.4,108.51,781.46-1.23,852-41.39,848.21-39,810.13-13.73,814.54,61.56Z"/><path class="cls-3" d="M1255.5,56.91V204.3H764.87c13.85-9.62,24.43-23,32.21-38.55,0,0,32.92,16.88,55.25,0,17.48-13.22,18.56-41.74,9.61-83.08,0,0,18.35,10.44,30-9.37,7.83-13.36,3.33-33.07-4.69-52.37.47.17,27.21,9.57,37.18-5.38,17.67-26.51-11.61-36.7-13.15-54.17-.89-10,11.92-16.8,11.92-16.8C997.55-46.13,1009.44,42,975.45,60.1c1.54-23.49-24.76-41.1-48-14.68s34,88,85.09,55.76a86.05,86.05,0,0,0,25.48-24c2.26,33.23,44.15,59.21,79.73,15.19-17,33.4,47.72,49,68.08,8.8,5.84-11.53,7.7-24.2,7.57-37.32C1193.43,63.86,1230.71,87.44,1255.5,56.91Z"/><path class="cls-4" d="M1255.5-258.44V-127.2c-11.76,5.63-35.3,8.64-80.47-9.35-77.36-30.82-131.51-33.75-123.78,57.23,6.1,71.68,10.28,122.42-13.2,156.5h0a86.05,86.05,0,0,1-25.48,24c-51,32.29-108.3-29.35-85.09-55.76s49.51-8.81,48,14.68c34-18.06,22.1-106.23-52.29-115.52a119.13,119.13,0,0,0-34.36,1q-3.66.62-7.16,1.42h0a109.2,109.2,0,0,0-21.58,7.4h0c-2.64,1.23-5.22,2.55-7.71,4l-.31.17c-70.56,40.16-86.62,149.9-195.29,169q-8,1.39-15.38,2.24C530,142.56,512,64.87,423.1,73.3c-92.83,8.8-141.42,103.18-233.94,86.07S96.64,17.27,14.64,2.73l-3.18-.54-2.57-.4Q5.38,1.26,2,.88L0,.67C-1.13.55-2.26.44-3.38.35-4.18.28-5,.21-5.76.17a5.48,5.48,0,0,0-.7,0C-7.31,0-8.16,0-9,0V-89.27h0c1-.33,2-.66,3-1s2-.62,3.06-.91,2-.57,3-.84,2-.52,3-.77c2-.49,4-.94,6-1.34,1-.2,2-.39,3-.57l1.31-.23,1.59-.27.14,0,2.39-.36.5-.07,1.48-.2L21.08-96l2.81-.31.22,0,2.54-.23c1.15-.09,2.3-.16,3.45-.23.63,0,1.27-.07,1.9-.09h.13l1.34,0h.26l1.89,0,2.87,0c42.81,0,82.14,18.3,123.14,38.64l5.86,2.92c9.8,4.88,19.71,9.83,29.8,14.63L203.36-38q3,1.43,6.12,2.82l3.08,1.38q3.09,1.38,6.19,2.73,4.67,2,9.4,3.95C325.36,12.52,304-161.49,506.64-77.85S826.92-20.62,862.5-108.66s-201.13-230.4-130-280.3,125.33,11.75,304.8,92.45C1150.58-245.58,1219.83-249,1255.5-258.44Z"/><path class="cls-3" d="M641.35,129.83s-8.42,16.37-9,35.22c0,0-124.1-47.6-210.75-40.75S313.12,167.23,255.39,179c-80.53,16.46-114.71,5.68-161.12-23.66C63,135.6,33.51,108.78-9,98.34V0c.84,0,1.69.09,2.54.16a5.48,5.48,0,0,1,.7,0l2.38.18C-2.26.44-1.13.55,0,.67L2,.88q3.36.39,6.87.91l2.57.4,3.18.54c82,14.54,82,139.54,174.52,156.64S330.27,82.1,423.1,73.3C512,64.87,530,142.56,641.35,129.83Z"/><path class="cls-5" d="M924.39,15.55c-10,15-36.71,5.55-37.18,5.38,8,19.3,12.52,39,4.69,52.37-11.61,19.81-30,9.37-30,9.37,8.95,41.34,7.87,69.86-9.61,83.08-22.33,16.88-55.25,0-55.25,0,14.9-29.83,19.58-67.93,17.46-104.19C810.13-13.73,848.21-39,852-41.39l.31-.17c2.49-1.42,5.07-2.74,7.71-4h0a109.2,109.2,0,0,1,21.58-7.4h0q3.5-.81,7.16-1.42a119.13,119.13,0,0,1,34.36-1s-12.81,6.78-11.92,16.8C912.78-21.15,942.06-11,924.39,15.55Z"/><path class="cls-3" d="M1255.5-65.84V56.91c-24.79,30.53-62.07,7-62.07,7-.4-48.07-27.27-102.34,18.36-130.12C1229.6-77.11,1245.54-71.86,1255.5-65.84Z"/><path class="cls-3" d="M1255.5-95.08v29.24c-10-6-25.9-11.27-43.71-.42-45.63,27.78-18.76,82-18.36,130.12.13,13.12-1.73,25.79-7.57,37.32-20.36,40.23-85.1,24.6-68.08-8.8,35.59-44,16.71-111.25,40.23-165.83C1176.34-116,1231.9-102.91,1255.5-95.08Z"/><path class="cls-5" d="M1255.5-127.2v32.12c-23.6-7.83-79.16-20.91-97.49,21.63-23.52,54.58-4.64,121.8-40.23,165.83s-77.47,18-79.73-15.19h0c23.48-34.08,19.3-84.82,13.2-156.5-7.73-91,46.42-88.05,123.78-57.23C1220.2-118.56,1243.74-121.57,1255.5-127.2Z"/></svg>