<svg id="Layer_1" data-name="Layer 1" xmlns="http://www.w3.org/2000/svg" viewBox="0 0 1242 91.28"><defs><style>.cls-1{fill:#231f20;}</style></defs><title>top-img</title><path class="cls-1" d="M100.1-9A53.38,53.38,0,0,0,82.59,5.73c-4.65,6-8,12.88-10.73,20-1.44,3.52-2.48,7.23-3.93,10.79-.72,1.78-1.41,3.59-2.09,5.39l-2,5.48c-2.59,7.34-5.17,14.76-8.19,22.09A141,141,0,0,1,44.93,90.83a91.73,91.73,0,0,1-15.37,18.72A89,89,0,0,1,9.65,123.39c-1.82.87-3.62,1.79-5.46,2.61l-5.61,2.24A86.8,86.8,0,0,1-13,131.84l-4.29,1V-12.5h3.5c9.78,0,19.62,0,29.5.15l14.84.25,14.87.33c4.82.29,9.48.7,14.14,1s9.26.59,13.78.84,9,.44,13.49.59S95.69-9.07,100.1-9Zm0,0q-7.62.1-15.21.34t-15,.59c-5,.25-9.84.52-14.69.84l-14.33,1-13.6.33-13.64.25c-9.1.12-18.24.15-27.45.15L-10.3-9V128.43L-14.59,125a80,80,0,0,0,10.72-3.33l5.25-2.1c1.72-.77,3.38-1.63,5.08-2.43a82,82,0,0,0,18.35-12.74A84.71,84.71,0,0,0,39,87.11,134.07,134.07,0,0,0,49.23,66.79C52.16,59.7,54.7,52.4,57.29,45l3.94-11.1a51.77,51.77,0,0,1,2.34-5.46c.87-1.79,1.73-3.58,2.69-5.34,3.75-7,8.06-14,13.84-19.6A51.65,51.65,0,0,1,100.1-9Z"/><path class="cls-1" d="M411.61,256.71a129.13,129.13,0,0,1-13.13,11.62,149,149,0,0,1-14.5,10A119,119,0,0,1,351.48,292a93.62,93.62,0,0,1-17.63,2.7,88.5,88.5,0,0,1-17.91-.9,87.57,87.57,0,0,1-17.43-4.6,71.13,71.13,0,0,1-8.26-3.8,88.76,88.76,0,0,1-7.76-4.65,130.6,130.6,0,0,1-14.17-11,171.35,171.35,0,0,1-12.73-12.44c-4-4.33-7.83-8.84-11.6-13.35s-7.46-9.07-11.11-13.65c-7.3-9.16-14.43-18.39-21.75-27.43s-14.8-17.88-22.86-26.07a159.53,159.53,0,0,0-12.62-11.59,95.52,95.52,0,0,0-13.88-9.58,69.69,69.69,0,0,0-7.5-3.58,56.88,56.88,0,0,0-7.83-2.46,49.61,49.61,0,0,0-8.05-1.09l-4.12,0a13.82,13.82,0,0,0-2,.11l-2,.18A37.9,37.9,0,0,0,115,153.64a41.32,41.32,0,0,0-11.88,10.79,81.11,81.11,0,0,0-8.55,14.41c-2.45,5.13-4.6,10.47-6.68,15.89-4.16,10.82-8,22-13.36,32.72A96.87,96.87,0,0,1,65.13,243a59.91,59.91,0,0,1-13.29,12.9,41.49,41.49,0,0,1-17.41,7.4,40.42,40.42,0,0,1-18.9-1.72A79.67,79.67,0,0,1-1,253.67c-5.13-3.1-10-6.45-14.79-9.71l-1.54-1V125.66l2.71-.64a80,80,0,0,0,10.72-3.33l5.25-2.1c1.72-.77,3.38-1.63,5.08-2.43a82,82,0,0,0,18.35-12.74A84.72,84.72,0,0,0,39,87.11,134.06,134.06,0,0,0,49.23,66.79C52.16,59.7,54.7,52.4,57.29,45S62.56,30.24,65.88,23,73.19,8.51,78.72,2.32a56.12,56.12,0,0,1,20-14.54l.66-.28h69.89l.48.16a103.55,103.55,0,0,1,21,9.39,89.3,89.3,0,0,1,17.83,14.62A95.3,95.3,0,0,1,222.07,30.2a137.93,137.93,0,0,1,9.56,20.6c5.29,14.13,8.84,28.69,12,43.2s5.84,29,9.13,43.36,7.11,28.46,12.85,41.73c.69,1.67,1.52,3.27,2.26,4.91.39.81.74,1.65,1.16,2.43l1.26,2.38c1.58,3.23,3.47,6.26,5.29,9.34a83.77,83.77,0,0,0,13.58,16.41,67.07,67.07,0,0,0,17.61,11.84,71.21,71.21,0,0,0,20.59,5.74,85.48,85.48,0,0,0,10.8.58,93,93,0,0,0,10.84-.79,99.32,99.32,0,0,0,10.72-2.05,79,79,0,0,0,10.37-3.3l.86-.35.54.67a94.28,94.28,0,0,0,18.11,17.35A110.21,110.21,0,0,0,411.61,256.71Zm0,0a110.81,110.81,0,0,1-22.69-11.45,93.87,93.87,0,0,1-19.25-16.83l1.4.33a81.31,81.31,0,0,1-10.59,3.88,102.38,102.38,0,0,1-11,2.59,96.5,96.5,0,0,1-11.22,1.3,89.3,89.3,0,0,1-11.35-.13,75.89,75.89,0,0,1-22.2-5.29A72.61,72.61,0,0,1,285.21,219a90.13,90.13,0,0,1-15.29-17.1,113.56,113.56,0,0,1-10.84-20L257,176.64c-.68-1.76-1.27-3.55-1.93-5.31s-1.23-3.55-1.8-5.34-1.18-3.57-1.68-5.37c-2.18-7.18-3.93-14.43-5.63-21.68-3.32-14.51-6-29.06-9.14-43.45s-6.61-28.63-11.7-42.21A131,131,0,0,0,216,33.68a88.33,88.33,0,0,0-12.54-17.24A82.3,82.3,0,0,0,187.1,3a96.65,96.65,0,0,0-19.42-8.68l1,.16H100.1l1.37-.28A49.06,49.06,0,0,0,84,6.95C79.08,12.4,75.42,19,72.25,25.88,66,39.7,61.77,54.82,55.71,69.45A141,141,0,0,1,44.93,90.83a91.74,91.74,0,0,1-15.37,18.72A89,89,0,0,1,9.65,123.39c-1.82.87-3.62,1.79-5.46,2.61l-5.61,2.24A86.79,86.79,0,0,1-13,131.84l2.71-3.41V241.06l-1.54-2.9c4.85,3.28,9.61,6.57,14.48,9.52a72.9,72.9,0,0,0,15,7.21,33.4,33.4,0,0,0,15.65,1.47,34.52,34.52,0,0,0,14.51-6.23,52.9,52.9,0,0,0,11.73-11.41,90,90,0,0,0,8.73-14.39c5.06-10.19,8.89-21.15,13.1-32.11,2.11-5.48,4.32-11,6.9-16.39a87.94,87.94,0,0,1,9.31-15.65,48.32,48.32,0,0,1,13.9-12.57,44.92,44.92,0,0,1,17.92-5.76l2.33-.21a17.24,17.24,0,0,1,2.32-.12l4.63,0A56.59,56.59,0,0,1,148,142.8a63.84,63.84,0,0,1,8.87,2.78,76.63,76.63,0,0,1,8.3,4,102.45,102.45,0,0,1,14.91,10.28,166.47,166.47,0,0,1,13.17,12.09c8.33,8.46,15.94,17.47,23.32,26.58s14.53,18.37,21.78,27.47S253,244,260.85,252.45s15.87,16.69,25.09,23.31A82.91,82.91,0,0,0,293,280.4a65.59,65.59,0,0,0,7.5,3.81,82.59,82.59,0,0,0,16.21,4.94,87,87,0,0,0,17,1.53,90,90,0,0,0,17-1.87,118.67,118.67,0,0,0,32.37-12A147.75,147.75,0,0,0,398,267.63,128.71,128.71,0,0,0,411.61,256.71Z"/><path class="cls-1" d="M370.58,227.68A91.73,91.73,0,0,1,327,236,74,74,0,0,1,304.76,231a72.69,72.69,0,0,1-19.71-11.83,77.89,77.89,0,0,1-8.31-8c-1.24-1.47-2.52-2.91-3.65-4.46s-2.19-3.15-3.28-4.72a139.37,139.37,0,0,1-10.68-20.13c-5.91-13.94-9.86-28.45-13.19-42.94s-6-29.06-9.14-43.45-6.61-28.63-11.7-42.21A131,131,0,0,0,216,33.68a88.33,88.33,0,0,0-12.54-17.24A82.3,82.3,0,0,0,187.1,3a96.65,96.65,0,0,0-19.42-8.68L146.95-12.5h182.1l-6.53,6.08A67.22,67.22,0,0,0,310.65,8a58.15,58.15,0,0,0-8.17,35.74,61.69,61.69,0,0,0,4.59,18.07,66.42,66.42,0,0,0,23.37,28.73,70.94,70.94,0,0,0,35.15,12.24l4.9.37-1.94,4.51c-2.08,4.82-4,9.72-5.68,14.71-.85,2.49-1.61,5-2.39,7.52s-1.62,5-2.32,7.54a127.74,127.74,0,0,0-5.45,30.8,104.7,104.7,0,0,0,.54,15.68c.22,2.62.73,5.19,1.18,7.79.2,1.3.59,2.56.88,3.84s.59,2.57,1,3.82l1.18,3.78c.44,1.24.94,2.47,1.4,3.71l.71,1.85.82,1.81c.56,1.2,1.07,2.43,1.68,3.6l1.88,3.51.47.88.53.85,1.06,1.69c.7,1.13,1.39,2.27,2.21,3.38S369.81,226.63,370.58,227.68Zm0,0c-1.75-2.18-3.51-4-5.05-6.24l-1.2-1.62-.6-.81-.55-.85L361,214.76c-.71-1.14-1.33-2.34-2-3.52l-1-1.77-.87-1.83c-.57-1.22-1.17-2.44-1.71-3.68l-1.48-3.78c-.53-1.25-.91-2.55-1.32-3.85s-.88-2.58-1.19-3.9c-.66-2.63-1.37-5.27-1.8-8l-.37-2-.19-1-.12-1-.49-4.06c-.2-1.35-.21-2.72-.3-4.08s-.19-2.73-.2-4.09a133.5,133.5,0,0,1,3.61-32.51,122.54,122.54,0,0,1,4.64-15.6c1.8-5.12,3.74-10.2,5.9-15.18l3,4.88a78,78,0,0,1-38.63-13.47,73.42,73.42,0,0,1-25.84-31.78,68.7,68.7,0,0,1-5.1-20.11,65.15,65.15,0,0,1,9.15-40,74.23,74.23,0,0,1,13.12-16l2.37,6.08H168.72l1-6.84a103.55,103.55,0,0,1,21,9.39,89.3,89.3,0,0,1,17.83,14.62A95.3,95.3,0,0,1,222.07,30.2a137.93,137.93,0,0,1,9.56,20.6c5.29,14.13,8.84,28.69,12,43.2s5.84,29,9.13,43.36,7.15,28.44,12.81,41.75c.69,1.67,1.5,3.28,2.24,4.92.39.81.73,1.65,1.16,2.44l1.27,2.37a102.59,102.59,0,0,0,5.46,9.24c1,1.44,2.11,2.87,3.14,4.32.5.74,1.11,1.38,1.66,2.08l1.64,2.09a85.43,85.43,0,0,0,7.19,7.81,67,67,0,0,0,17.44,12.06,73.08,73.08,0,0,0,20.57,6.08,85.8,85.8,0,0,0,10.86.75,98.35,98.35,0,0,0,10.94-.61A92,92,0,0,0,370.58,227.68Z"/><path class="cls-1" d="M1255.8,280l.69,76.25v.52l-.52.14a167.41,167.41,0,0,1-28.58,5.07c-4.82.57-9.66.67-14.5.93-2.42.07-4.84,0-7.26,0s-4.85,0-7.26-.11a328,328,0,0,1-57.54-7.47c-9.49-1.95-18.83-4.49-28.18-7l-13.9-4.21c-2.33-.67-4.61-1.48-6.9-2.26l-6.87-2.36-6.87-2.36c-2.28-.81-4.52-1.72-6.79-2.57l-13.55-5.2-13.37-5.64-6.69-2.82c-2.23-.94-4.41-2-6.62-2.94-35.32-15.65-70-32.72-104.37-50.28-17.19-8.76-34.31-17.64-51.47-26.3-8.59-4.33-17.21-8.53-25.93-12.48a273.33,273.33,0,0,0-26.53-10.57,135.92,135.92,0,0,0-27.4-6.41,81.62,81.62,0,0,0-27.57,1.31,86.75,86.75,0,0,0-25.6,10.58c-1,.54-2,1.24-3,1.87l-2.94,1.93-1.47,1-1.31,1-1.31,1c-.44.33-.8.74-1.2,1.1a24.69,24.69,0,0,0-6.9,10.46,27.55,27.55,0,0,0-.84,12.71,54.64,54.64,0,0,0,3.82,13,112.36,112.36,0,0,0,6.27,12.51q3.59,6.09,7.62,12c10.82,15.65,23.27,30.33,35.79,44.93s25.35,29.06,37.7,44,24.34,30.23,34.68,46.85A176.89,176.89,0,0,1,862.8,454.3c3.73,9.16,6.53,18.93,7.06,29.12a61,61,0,0,1-1.17,15.29l-1,3.75c-.36,1.24-.83,2.44-1.25,3.66A36.91,36.91,0,0,1,865,509.6l-1.5,3.39a130.67,130.67,0,0,1-15.33,25.41,123,123,0,0,1-21.13,20.88l-3,2.25-1.48,1.12-1.55,1c-2.08,1.35-4.14,2.73-6.23,4.05l-6.48,3.62c-.54.3-1.07.61-1.63.89l-1.68.79-3.35,1.58-3.35,1.58-3.44,1.36-3.44,1.36c-1.15.45-2.28.94-3.47,1.28l-7,2.28c-1.16.41-2.36.71-3.55,1l-3.57.93-3.57.93c-1.19.33-2.4.51-3.6.77l-7.22,1.45c-2.42.41-4.85.73-7.27,1.09l-3.64.53c-1.21.18-2.43.25-3.65.38a299.71,299.71,0,0,1-58.46,0A447.45,447.45,0,0,1,629,580.28c-18.93-4.27-37.61-9.53-56.06-15.43s-36.64-12.59-54.64-19.69l-13.46-5.4c-4.44-1.77-8.87-3.59-13.36-5.21-9-3.33-18-6.39-27.2-8.92-18.33-5.09-37.2-8.49-56.05-8.3a133.62,133.62,0,0,0-14,1c-2.34.23-4.63.69-6.94,1s-4.59.89-6.84,1.51A99.68,99.68,0,0,0,367,525.12a101.47,101.47,0,0,0-12.64,6,137.23,137.23,0,0,0-22.93,16.35c-7.18,6.19-14,12.95-20.89,19.7s-14.08,13.55-22.43,19.19a67.59,67.59,0,0,1-13.46,7.12,52,52,0,0,1-15,3.38,60.68,60.68,0,0,1-15.29-.89,83.29,83.29,0,0,1-14.49-4.12c-2.37-.87-4.59-1.82-6.83-2.76s-4.48-1.87-6.7-2.86c-4.46-1.93-8.86-3.94-13.27-6-17.57-8.17-34.76-17-52-25.46s-34.7-16.49-52.71-22.69-36.64-10.46-55.51-10.91a144.76,144.76,0,0,0-28.13,2,159.76,159.76,0,0,0-27.3,7.25l-4.7,1.69V411.65l4.87,2.06c7.62,3.23,15,6.64,22.58,9.38s15.21,4.8,22.86,5a41.51,41.51,0,0,0,11.23-1.29,41,41,0,0,0,10.39-4.45,50.17,50.17,0,0,0,9.13-7.05c.7-.68,1.43-1.32,2.1-2l1.94-2.15c.32-.36.66-.71,1-1.08l.87-1.15c.58-.77,1.19-1.52,1.74-2.3a53,53,0,0,0,5.37-10.12,60.57,60.57,0,0,0,3-11.2c1.3-7.73,1.28-15.82,1.59-24.13a111,111,0,0,1,1.11-12.67A51,51,0,0,1,86,335.75a42.53,42.53,0,0,1,7.29-11.23A51.75,51.75,0,0,1,103.31,316c1.86-1.11,3.66-2.35,5.59-3.27l2.86-1.48c1-.49,1.94-.87,2.92-1.31l2.93-1.28c1-.39,2-.73,3-1.1l3-1.08,3.13-.83a77.06,77.06,0,0,1,25.59-2.1,130.76,130.76,0,0,1,24.84,4.7c8,2.24,15.88,4.9,23.67,7.57,15.55,5.37,31,10.75,46.72,14.74,7.86,2.07,15.81,3.69,23.8,5.05l6,.94c2,.3,4,.5,6,.76,4,.55,8.06.79,12.1,1.15a263.34,263.34,0,0,0,48.55-1.29c2-.25,4-.42,6-.73l6-.93,3-.47c1-.15,2-.3,3-.53l5.81-1.24a86,86,0,0,0,21.8-9,88.08,88.08,0,0,0,18.54-14.64A117.1,117.1,0,0,0,423,290.85a199.13,199.13,0,0,0,11.69-21.17c3.48-7.32,6.61-14.83,9.62-22.41,11.83-30.41,21-62.1,33.82-92.67l2.47-5.7c.82-1.9,1.65-3.8,2.55-5.68l2.63-5.64,2.8-5.57,1.4-2.78,1.5-2.74c1-1.83,2-3.66,3-5.48,2.16-3.57,4.19-7.21,6.55-10.67a176.23,176.23,0,0,1,15-20.1l4.21-4.69c1.43-1.54,3-3,4.45-4.47L527,78.86c.76-.73,1.58-1.39,2.36-2.09l4.76-4.15,5-3.84c.84-.63,1.67-1.29,2.52-1.91l2.63-1.75c1.76-1.16,3.5-2.35,5.28-3.47l5.5-3.12c.92-.51,1.83-1.05,2.76-1.54l2.85-1.37,5.7-2.73,5.86-2.33,2.93-1.16c1-.41,2-.67,3-1l6-1.92,1.5-.48c.5-.15,1-.26,1.52-.39l3.05-.76,6.11-1.52,6.18-1.13,3.09-.56c1-.19,2.06-.39,3.09-.5l6.17-.79,6.17-.79,3.09-.39,3.1-.26,12.4-1,12.44-.48c4.14-.24,8.3-.06,12.45-.06l6.22.06c2.07.06,4.14.21,6.22.31l6.22.34,3.11.17c1,.08,2.07.2,3.1.3l12.39,1.25,12.32,1.78c2.06.26,4.09.7,6.13,1.07l6.12,1.16a372.33,372.33,0,0,1,48,13.05,431.33,431.33,0,0,1,45.9,19c29.91,14.22,58,31.8,85.17,50.42s53.43,38.48,79.7,58.21c13.13,9.87,26.27,19.72,39.53,29.39,3.3,2.46,6.65,4.77,10,7.13,1.65,1.2,3.38,2.3,5.08,3.43l5.11,3.37c6.93,4.33,13.91,8.59,21.13,12.41a334.58,334.58,0,0,0,44.72,20.11c7.71,2.75,15.49,5.29,23.37,7.53s15.84,4.16,23.86,5.85A351.44,351.44,0,0,0,1255.8,280Zm0,0a352.31,352.31,0,0,1-98.27-4.65q-12.13-2.33-24.09-5.47c-8-2.13-15.84-4.56-23.65-7.21a337.51,337.51,0,0,1-45.42-19.57c-7.36-3.75-14.48-7.94-21.55-12.21l-5.22-3.33c-1.74-1.12-3.5-2.2-5.19-3.39-3.41-2.33-6.85-4.63-10.18-7-13.44-9.48-26.72-19.17-40-28.85-26.55-19.36-53-38.8-80.31-56.93-13.65-9.06-27.45-17.86-41.59-26.07s-28.51-16-43.19-23.06A404.12,404.12,0,0,0,772,63.48,365.33,365.33,0,0,0,725,50.67l-6-1.13c-2-.37-4-.8-6-1.05l-12.07-1.75-12.13-1.23c-1-.1-2-.21-3-.29l-3-.17-6.09-.33c-2-.1-4.06-.25-6.09-.31l-6.1-.05c-4.06,0-8.13-.18-12.19.06l-12.19.47-12.16,1-3,.25-3,.38-6.05.78-6.05.77c-1,.11-2,.3-3,.48l-3,.54-5.94,1.08L592,51.63l-2.93.73c-.49.12-1,.23-1.46.37l-1.43.46L580.41,55c-.95.33-1.93.57-2.85,1l-2.79,1.11-5.59,2.22-5.41,2.59-2.71,1.29c-.88.47-1.74,1-2.62,1.47l-5.22,3c-1.69,1.07-3.34,2.2-5,3.3l-2.5,1.65c-.81.58-1.59,1.21-2.39,1.81L538.55,78,534,82c-.75.67-1.52,1.3-2.25,2l-2.14,2.12c-1.41,1.42-2.88,2.79-4.24,4.26l-4,4.48a169.25,169.25,0,0,0-14.46,19.32c-2.28,3.33-4.24,6.88-6.34,10.33-1,1.76-1.95,3.55-2.92,5.33l-1.45,2.67-1.37,2.72-2.73,5.44-2.57,5.53c-.87,1.83-1.7,3.69-2.5,5.56l-2.43,5.6c-6.27,15-11.78,30.45-17.12,46s-10.63,31.12-16.63,46.54c-3.05,7.69-6.25,15.35-9.82,22.87a206.1,206.1,0,0,1-12.12,21.95,124,124,0,0,1-15.59,19.92,95.1,95.1,0,0,1-20,15.8,93.06,93.06,0,0,1-23.62,9.71l-6.24,1.34c-1,.25-2.07.41-3.1.56l-3.08.48-6.16,1c-2.05.32-4.13.5-6.19.75a270.35,270.35,0,0,1-49.84,1.32c-4.15-.37-8.31-.62-12.43-1.18-2.06-.26-4.14-.47-6.2-.78l-6.17-1c-8.2-1.4-16.36-3.06-24.39-5.18-16.11-4.08-31.76-9.55-47.26-14.9-7.75-2.66-15.48-5.28-23.27-7.45a123.89,123.89,0,0,0-23.51-4.47,70,70,0,0,0-23.28,1.9l-2.83.74-2.76,1c-.92.33-1.84.63-2.76,1l-2.72,1.19c-.9.41-1.83.76-2.7,1.21l-2.61,1.35c-1.79.84-3.36,2-5,2.94a44.8,44.8,0,0,0-8.71,7.34,35.49,35.49,0,0,0-6.07,9.34c-3,6.88-3.74,14.78-4.07,22.84s-.26,16.51-1.68,25A67.51,67.51,0,0,1,83.28,399a60,60,0,0,1-6.15,11.59c-.63.89-1.31,1.74-2,2.62l-1,1.3c-.34.42-.72.81-1.08,1.22l-2.19,2.42c-.75.78-1.56,1.5-2.33,2.25a57.11,57.11,0,0,1-10.34,8A48,48,0,0,1,46,433.55a48.53,48.53,0,0,1-13.17,1.52c-8.83-.22-17.21-2.54-25.1-5.4s-15.43-6.33-22.93-9.51l4.87-3.22V527.2l-4.7-3.29a166.77,166.77,0,0,1,28.54-7.58A151.77,151.77,0,0,1,43,514.24c19.76.47,39.16,4.94,57.59,11.29s36.13,14.55,53.51,23,34.5,17.31,51.9,25.39c4.36,2,8.72,4,13.12,5.9,2.19,1,4.4,1.9,6.6,2.82s4.42,1.87,6.58,2.66c8.68,3.3,17.83,5.26,26.8,4.58s17.49-4.16,25.12-9.33,14.57-11.72,21.45-18.4,13.76-13.58,21.19-20A144.21,144.21,0,0,1,351,525a108.48,108.48,0,0,1,13.46-6.4,106.67,106.67,0,0,1,14.2-4.57c2.4-.66,4.85-1.08,7.28-1.6s4.89-.86,7.36-1.1a140.61,140.61,0,0,1,14.8-1c19.78-.2,39.25,3.34,58,8.55,9.41,2.59,18.64,5.71,27.76,9.1,4.57,1.66,9.07,3.5,13.58,5.3l13.39,5.37c17.87,7.06,35.89,13.74,54.19,19.53s36.76,11,55.46,15.27a440.51,440.51,0,0,0,56.62,9.19,292.78,292.78,0,0,0,57.06,0c1.18-.13,2.37-.2,3.54-.37l3.52-.52c2.34-.36,4.7-.66,7-1.06l7-1.4c1.16-.25,2.33-.42,3.47-.74l3.43-.89,3.43-.89c1.14-.29,2.29-.58,3.4-1l6.73-2.18c1.13-.33,2.21-.8,3.31-1.23l3.28-1.3,3.28-1.3,3.19-1.51,3.19-1.51,1.59-.75c.53-.26,1-.57,1.54-.85l6.15-3.43,5.89-3.83,1.47-1,1.4-1.06,2.79-2.13a116,116,0,0,0,19.91-19.67,123.69,123.69,0,0,0,14.48-24l1.43-3.22a32.64,32.64,0,0,0,1.32-3.2c.36-1.06.78-2.1,1.09-3.18l.83-3.26a54.06,54.06,0,0,0,1-13.46c-.47-9.1-3-18.16-6.55-26.82a170,170,0,0,0-13.11-25.09c-10-16.15-21.9-31.27-34.12-46.08s-25-29.23-37.61-43.87-25.12-29.45-36.26-45.54q-4.16-6-7.91-12.43a119.25,119.25,0,0,1-6.68-13.34,61.49,61.49,0,0,1-4.28-14.68A34.55,34.55,0,0,1,717.46,240a31.72,31.72,0,0,1,8.79-13.43c.49-.44.95-.94,1.47-1.34l1.55-1.2,1.55-1.2,1.55-1,3.1-2c1-.67,2-1.39,3.15-2a93.75,93.75,0,0,1,27.64-11.4A88.65,88.65,0,0,1,796.18,205,142.8,142.8,0,0,1,825,211.72a290.86,290.86,0,0,1,27.21,10.78q13.29,6,26.25,12.5c17.32,8.63,34.29,17.79,51.34,26.78,34.07,18,68.39,35.51,103.38,51.62,2.19,1,4.36,2.05,6.56,3l6.6,2.9,13.2,5.79,13.38,5.35c2.23.88,4.45,1.81,6.7,2.65l6.78,2.44,6.78,2.45c2.26.82,4.51,1.66,6.81,2.35l13.72,4.4c9.22,2.66,18.46,5.34,27.83,7.42a325.16,325.16,0,0,0,56.92,8.31c2.39.2,4.79.18,7.19.23s4.8.1,7.2.08c4.79-.18,9.6-.2,14.38-.68a165.78,165.78,0,0,0,28.4-4.51l-.51.67Z"/><path class="cls-1" d="M536.6-9c-2.1.33-4.19.85-6.49,1.41-1.12.28-2.35.52-3.43.79L523.4-6c-4.38,1-8.73,2.24-13.07,3.39-8.64,2.47-17.18,5.24-25.56,8.35l-6.24,2.42-6.16,2.6c-4.06,1.84-8.1,3.68-12.18,5.41a191.52,191.52,0,0,0-23.5,12.42,168.73,168.73,0,0,0-55.9,55.56,190.75,190.75,0,0,0-12.23,23.54l-.92,2.11h-2.56a78,78,0,0,1-38.63-13.47,73.42,73.42,0,0,1-25.84-31.78,68.7,68.7,0,0,1-5.1-20.11,65.15,65.15,0,0,1,9.15-40,74.23,74.23,0,0,1,13.12-16l1-.93h1.38q27.49,0,55.19.17c18.46.13,37,.39,55.41.76l27.61.58c2.32,0,4.63.08,6.84.18l6.6.3,13.12.51C502.39-9.4,519.54-9.07,536.6-9Zm0,0c-19,.07-37.95.4-56.56,1l-13.93.51-6.93.3c-2.3.1-4.5.15-6.69.18L426-6.43c-17.64.37-35.2.63-52.81.76s-35.28.17-53,.17l2.37-.92A67.22,67.22,0,0,0,310.65,8a58.15,58.15,0,0,0-8.17,35.74,61.69,61.69,0,0,0,4.59,18.07,66.42,66.42,0,0,0,23.37,28.73,70.94,70.94,0,0,0,35.15,12.24h-.25l-3.21,2.11a197.75,197.75,0,0,1,12.7-24.43A175.73,175.73,0,0,1,433,22.65,230.66,230.66,0,0,1,457.25,9.7c1-.49,2.08-1,3.13-1.42s2.09-.93,3.17-1.32q3.22-1.19,6.47-2.31l6.52-2.1L483.1.63c8.78-2.46,17.66-4.43,26.59-6,4.48-.74,8.93-1.52,13.43-2.05l3.36-.44c1.14-.16,2.14-.23,3.24-.33C531.88-8.4,534.24-8.61,536.6-9Z"/><path class="cls-1" d="M1255.8,258.09l.32,21.93v.29l-.3,0a349.43,349.43,0,0,1-124.74-10.12c-40.65-10.74-79.22-29.67-113.22-54.44-17.14-12-33.73-24.77-50.55-37.15s-33.62-24.76-50.71-36.69c-34.16-23.83-69.49-46.11-107.22-63.45A400,400,0,0,0,751.15,57a338.35,338.35,0,0,0-60.92-11.3,333.53,333.53,0,0,0-62,.2c-10.29,1-20.61,2.35-30.61,4.35a163.61,163.61,0,0,0-29.1,9.39,136.4,136.4,0,0,0-48.36,36.52c-13.2,15.65-23.37,33.77-31.88,52.6S473,187.26,466.19,207s-13.51,39.65-22.07,59L443,268.43l-2.65-.4c-17.64-2.7-35-8.58-50.18-18.4A98.55,98.55,0,0,1,369.68,232,90.24,90.24,0,0,1,355,209.17a95,95,0,0,1-7.3-26.09,110.84,110.84,0,0,1-.16-27c.23-2.23.62-4.44.92-6.66s.84-4.4,1.26-6.59l.33-1.65.41-1.62.82-3.25c.53-2.18,1.13-4.3,1.77-6.42a224.13,224.13,0,0,1,9-25l.91-2.11h2.31l-3.21,2.11a197.75,197.75,0,0,1,12.7-24.43A175.73,175.73,0,0,1,433,22.65,229.6,229.6,0,0,1,482.85-.13c8.69-2.82,17.5-5.22,26.38-7.28s17.85-3.65,26.84-5l.25,0H660.08l.26,0A539.16,539.16,0,0,1,740.87,6.89c6.59,2,13.1,4.33,19.63,6.57s13,4.68,19.4,7.2q19.3,7.44,38.19,15.85c50.39,22.4,98.64,49.15,145.55,77.86,11.73,7.18,23.44,14.4,35,21.87s22.92,15.2,34.29,22.92l17,11.67,17,11.46,2.13,1.43,2.17,1.37,4.34,2.73,8.68,5.46c1.44.93,2.91,1.79,4.39,2.65l4.42,2.6,8.85,5.19a518.21,518.21,0,0,0,74.21,34.92C1201.81,248,1228.46,255.26,1255.8,258.09Zm0,0c-27.41-2.06-54.38-8.51-80.45-17.29a518.86,518.86,0,0,1-75.55-33.26l-9-5-4.52-2.51c-1.51-.83-3-1.67-4.48-2.57l-8.87-5.3-4.44-2.65-2.22-1.33-2.18-1.39-17.4-11.14-17.22-11.25c-11.5-7.47-23.08-14.81-34.66-22.14s-23.09-14.76-34.79-21.9c-46.73-28.6-94.74-55.21-144.74-77.43q-18.73-8.37-37.87-15.72c-6.36-2.5-12.79-4.79-19.21-7.13s-12.9-4.47-19.42-6.5a532.2,532.2,0,0,0-79.47-19.1l.53,0H536.6l.52,0c-8.83,1.38-17.62,3-26.32,5S493.49,3.77,485,6.52A222.62,222.62,0,0,0,436.68,28.6a168.73,168.73,0,0,0-55.9,55.56,190.75,190.75,0,0,0-12.23,23.54l-.92,2.11h-2.3l3.21-2.11a217.2,217.2,0,0,0-8.75,24.22c-.62,2.06-1.2,4.14-1.7,6.2l-.79,3.1-.39,1.55-.31,1.56c-.39,2.09-.89,4.16-1.19,6.26s-.66,4.2-.88,6.3a103.85,103.85,0,0,0,.14,25.27,88,88,0,0,0,6.75,24.15,83.23,83.23,0,0,0,13.52,21.07A91.56,91.56,0,0,0,394,243.75c14.18,9.18,30.61,14.79,47.43,17.36l-3.72,2c8.37-18.9,15-38.67,21.85-58.41s13.77-39.6,22.37-58.88,19.14-37.91,32.93-54.26a148.65,148.65,0,0,1,23.25-22A139.4,139.4,0,0,1,565.74,53.2a170.54,170.54,0,0,1,30.46-9.83c10.49-2.1,20.92-3.44,31.43-4.48a340.53,340.53,0,0,1,63.24-.2A345.36,345.36,0,0,1,753,50.22,407,407,0,0,1,812.3,72.12c38.3,17.6,74,40.12,108.31,64.08,17.18,12,34.06,24.37,50.87,36.8l50.46,37.14c8.37,6.29,16.77,12.2,25.53,17.78s17.75,10.68,27,15.4,18.68,9,28.31,12.86,19.48,7.19,29.44,10.14a351.86,351.86,0,0,0,123.59,13.38l-.29.32Z"/><path class="cls-1" d="M1255.8,209.29q.22,12,.55,24.19l.61,24.61,0,1.24-1.29-.09a289.44,289.44,0,0,1-41-5.87,382.57,382.57,0,0,1-39.95-11c-3.28-1.08-6.52-2.29-9.78-3.43l-4.89-1.74-4.83-1.89-9.65-3.79q-4.77-2-9.51-4.13-2.38-1-4.73-2.11c-1.56-.74-3.1-1.52-4.65-2.28l-9.27-4.62c-1.56-.75-3.07-1.57-4.6-2.39l-4.57-2.43-9.14-4.87-9-5.14-4.49-2.57c-1.5-.85-3-1.7-4.46-2.62l-8.83-5.41-4.41-2.7-2.21-1.35-2.16-1.42-17.29-11.35-17.09-11.45c-22.83-15.18-45.88-30-69.25-44.34-46.73-28.6-94.74-55.21-144.74-77.43q-18.73-8.37-37.87-15.72c-6.36-2.5-12.79-4.79-19.21-7.13s-12.9-4.47-19.42-6.5a532.2,532.2,0,0,0-79.47-19.1l.53-7H775.06l.65.28C816.51,5.1,856.54,24.06,896.2,43.7s78.91,40.08,118,60.69l58.66,30.94c4.88,2.59,9.81,5.09,14.71,7.63s9.78,5.15,14.63,7.77l14.59,7.84c4.86,2.63,9.77,5.13,14.65,7.7,2.45,1.26,4.88,2.58,7.35,3.8l7.4,3.68c2.47,1.21,4.92,2.49,7.41,3.65l7.49,3.43,3.75,1.72c1.26.56,2.53,1.08,3.8,1.62,2.53,1.08,5.07,2.14,7.63,3.16l3.83,1.54,3.86,1.48c2.57,1,5.15,1.95,7.74,2.89q15.53,5.66,31.54,9.89A225.39,225.39,0,0,0,1255.8,209.29Zm0,0a226.16,226.16,0,0,1-32.86-4.66c-10.85-2.3-21.56-5.21-32.14-8.56-2.65-.83-5.29-1.68-7.91-2.58l-3.94-1.33-3.92-1.39c-2.62-.91-5.22-1.88-7.82-2.86-1.3-.49-2.6-1-3.9-1.47l-3.86-1.59-7.72-3.19c-2.57-1.08-5.07-2.26-7.6-3.39l-7.59-3.42c-2.53-1.14-5-2.36-7.52-3.54-5-2.39-10-4.72-15-7.17l-14.92-7.3c-9.94-4.87-19.66-10.15-29.44-15.31L1011,110.58C971.88,90,932.67,69.6,893.1,50S813.59,11.46,773-5.78l1.36.28H659.8l.53-7A539.16,539.16,0,0,1,740.87,6.89c6.59,2,13.1,4.33,19.63,6.57s13,4.68,19.4,7.2q19.3,7.44,38.19,15.85c50.39,22.4,98.64,49.15,145.55,77.86,23.46,14.36,46.58,29.26,69.47,44.48l17.13,11.47,17.14,11.25,2.14,1.4,2.18,1.34,4.37,2.67,8.73,5.35c1.44.91,2.93,1.75,4.41,2.59l4.44,2.54,8.89,5.08,9,4.81c3,1.58,6,3.26,9.07,4.73l9.21,4.45c1.54.74,3.06,1.51,4.6,2.23s3.1,1.41,4.65,2.13q4.64,2.15,9.25,4.35l9.37,4.1,4.69,2,4.75,1.89c3.17,1.24,6.32,2.56,9.52,3.75a387.47,387.47,0,0,0,39,12.36,286.26,286.26,0,0,0,40.23,7.52l-1.26,1.16.61-24.19Q1255.57,221.7,1255.8,209.29Z"/><path class="cls-1" d="M1187.7,98.07q-8.5-4.87-16.61-10.39c-5.44-3.62-10.74-7.45-15.93-11.43a375.88,375.88,0,0,1-29.91-25.48c-9.54-9-18.68-18.45-27.52-28.12-4.44-4.82-8.76-9.73-13.12-14.59S1076-1.73,1071.75-6.65l2.67,1.21c-25-.12-50,0-75-.06H774.34l1.36-6.72C816.51,5.1,856.54,24.06,896.2,43.7s78.91,40.08,118,60.69l58.66,30.94c19.57,10.26,39.13,20.56,58.89,30.32,2.47,1.22,4.92,2.49,7.41,3.66l7.45,3.53c2.49,1.16,5,2.39,7.46,3.5l7.52,3.27,3.76,1.64c1.26.53,2.55,1,3.82,1.53,2.55,1,5.1,2,7.67,3l3.85,1.46,3.87,1.39c2.57.95,5.17,1.83,7.76,2.71,10.38,3.53,20.9,6.61,31.52,9.13a210.89,210.89,0,0,0,32.18,5.28l-3.85,3.55c-.07-6.82.05-13.63.24-20.45s.32-13.63.55-20.45c.39-13.63.92-27.26,1.38-40.89l1,1.33c-5.84-2.13-11.64-4.35-17.39-6.7s-11.47-4.75-17.12-7.29-11.27-5.18-16.8-8S1193,101.19,1187.7,98.07Zm0,0q8.07,4.61,16.44,8.64c5.59,2.67,11.27,5.13,17,7.47s11.56,4.43,17.4,6.44,11.76,3.83,17.69,5.55l.93.27,0,1.06c.46,13.63,1,27.26,1.38,40.89.23,6.82.38,13.63.55,20.45s.31,13.63.24,20.45l0,3.9-3.81-.35c-5.62-.52-11.2-1.28-16.73-2.2s-11-2.08-16.46-3.36c-10.89-2.58-21.61-5.73-32.16-9.32-2.64-.89-5.28-1.79-7.89-2.75l-3.93-1.42-3.9-1.48c-2.61-1-5.2-2-7.78-3-1.29-.52-2.59-1-3.87-1.55l-3.84-1.67-7.68-3.34c-2.55-1.13-5-2.36-7.55-3.54l-7.53-3.57c-2.51-1.18-5-2.46-7.46-3.68-19.88-9.82-39.46-20.13-59-30.4L1011,110.58C971.88,90,932.67,69.6,893.1,50S813.59,11.46,773-5.78L757.14-12.5H999.41c25,0,50,.06,75-.06H1076l1.09,1.22q6.57,7.34,12.7,15l12.32,15.21c8.22,10.11,16.56,20.1,25.38,29.68a298.4,298.4,0,0,0,28.17,27.07q7.53,6.25,15.53,11.91T1187.7,98.07Z"/><path class="cls-1" d="M1169.22-9A89.84,89.84,0,0,0,1156,4.4a84.38,84.38,0,0,0-5.34,7.52c-.8,1.31-1.54,2.64-2.38,3.9s-1.78,2.46-2.58,3.75a92,92,0,0,0-10.6,25.18c-.38,1.47-.71,3-1,4.44-.15.74-.28,1.48-.4,2.22s-.23,1.52-.3,2.12l-.8,7.23-5.14-5.07c-10-9.85-19.4-20.22-28.54-30.75s-18-21.24-27.13-31.64l-5.09-5.8h7.72c16.34,0,33,.16,49.51.71l12.35.42c1,0,2.12,0,3.09.1s1.9.2,2.84.29l5.58.55c3.71.33,7.32.63,10.89.87S1165.76-9.14,1169.22-9Zm0,0c-4.44.14-8.84.33-13.16.57s-8.62.54-12.81.87L1137-7l-3.08.29c-1,.08-1.9.08-2.83.1l-11.35.42c-15.08.55-30,.72-45.28.71l2.63-5.81c9.21,10.51,18.07,21.21,27.15,31.67s18.36,20.68,28.17,30.35l-5.94,2.16c.11-1,.22-1.74.36-2.58s.28-1.64.44-2.45c.32-1.62.68-3.23,1.09-4.82a99,99,0,0,1,11.42-27.13c.91-1.37,1.68-2.83,2.63-4.18A37.34,37.34,0,0,1,1145.6,8a89.81,89.81,0,0,1,7.19-6.74A73.47,73.47,0,0,1,1169.22-9Z"/><path class="cls-1" d="M1255.8-9l1.91,32.83c.53,11.16,1.64,22.28,1.33,34.08q.28,34.8.27,69.59v4.83l-4.59-1.5c-11.78-3.86-23.43-8.15-34.86-13a308.4,308.4,0,0,1-33.48-16.48,265.91,265.91,0,0,1-31-20.95,326.13,326.13,0,0,1-27.95-24.7l-1.21-1.19.18-1.64c.11-1,.22-1.74.36-2.58s.28-1.64.44-2.45c.32-1.62.68-3.23,1.09-4.82a99,99,0,0,1,11.42-27.13q2.61-4.19,5.63-8.12a91.06,91.06,0,0,1,6.53-7.43A84.7,84.7,0,0,1,1167.38-12l.84-.52h1l22.3.06c7.52-.27,14.82.46,22.05.87L1235-10.22C1242-9.81,1248.94-9.36,1255.8-9Zm0,0c-7.57.36-15.1.81-22.48,1.22l-21.88,1.35c-7.2.4-14.33,1.14-21.24.87l-21,.06,1.84-.52A77.69,77.69,0,0,0,1156.9,5.27a84.09,84.09,0,0,0-6,6.82q-2.77,3.61-5.19,7.48a92,92,0,0,0-10.6,25.18c-.38,1.47-.71,3-1,4.44-.15.74-.28,1.48-.4,2.22s-.23,1.52-.3,2.12l-1-2.83a319.13,319.13,0,0,0,27.35,24.17,258.89,258.89,0,0,0,30.14,20.4,301.48,301.48,0,0,0,32.72,16.1c11.22,4.76,22.69,9,34.3,12.79l-4.59,3.33q0-33.51.27-66.91c-.32-10.95.79-22.58,1.33-34.17Z"/><path class="cls-1" d="M950.71,189c-3.89-4.08-7.62-8.28-11.66-12.18-3.88-4-8-7.82-12.09-11.66q-12.44-11.26-25.78-21.29a296.68,296.68,0,0,0-55.8-36.15c-4.94-2.53-10-4.76-15.09-7l-7.71-3.15c-2.57-1.05-5.2-1.94-7.79-2.92a282.73,282.73,0,0,0-31.91-9.38A271.49,271.49,0,0,0,750.07,80l-4.14-.37c-1.38-.12-2.76-.26-4.14-.31l-8.3-.41-8.31-.08c-1.39,0-2.77,0-4.15.06l-4.15.13a232.39,232.39,0,0,0-124.36,41.27,263.82,263.82,0,0,0-49.26,44.45A308,308,0,0,0,502.71,218,274,274,0,0,1,538,160.13a270.81,270.81,0,0,1,50.57-45.63A239.43,239.43,0,0,1,716.61,72l4.27-.13c1.42,0,2.85-.1,4.27-.06l8.54.09,8.53.42c1.42,0,2.84.19,4.26.32l4.25.38a278.48,278.48,0,0,1,33.7,5.4A289.74,289.74,0,0,1,817.17,88c2.66,1,5.36,1.91,8,3l7.9,3.23c5.19,2.32,10.4,4.6,15.46,7.2a310.27,310.27,0,0,1,57.15,36.94,329.46,329.46,0,0,1,24,24.07c3.67,4.31,7.42,8.54,10.87,13S947.41,184.44,950.71,189Z"/><path class="cls-1" d="M1261.71,141.14a288.89,288.89,0,0,1-54.43,7c-9.19-.15-18.35-.8-27.49-1.7s-18.22-2.25-27.26-3.84c-36.15-6.51-71.14-18.48-104.21-34.15a554,554,0,0,1-93.67-56.87q-22-16.39-42.46-34.68C905.74,10.39,899.4,3.79,893.29-3q-4.58-5.1-9-10.32c-2.92-3.51-5.81-7-8.57-10.67,3.25,3.19,6.61,6.26,10,9.3s6.77,6.06,10.21,9C902.8.23,909.75,6,916.86,11.65q20.24,18,42,34.29a547,547,0,0,0,92.47,56.15c32.6,15.45,67,27.2,102.46,33.59,8.86,1.56,17.77,2.91,26.72,3.76l3.35.35,3.36.26c2.24.16,4.48.37,6.73.5s4.49.23,6.74.3,4.5,0,6.74.18A375,375,0,0,0,1261.71,141.14Z"/><path class="cls-1" d="M-31.29,167.07a133.31,133.31,0,0,0,15.37-.52,146.46,146.46,0,0,0,15.14-2,132.43,132.43,0,0,0,14.71-3.6,111.44,111.44,0,0,0,13.94-5.42c1.11-.56,2.23-1.06,3.36-1.55s2.22-1.07,3.33-1.6l1.65-.83,1.59-.93c1-.64,2.14-1.21,3.14-1.92a72,72,0,0,0,11.37-9.21l2.49-2.68.62-.67.57-.72L57.13,134a66.33,66.33,0,0,0,4.21-6,69.48,69.48,0,0,0,6.25-13.24c.39-1.16.85-2.3,1.19-3.48l.94-3.57c.63-2.3,1.27-5,1.9-7.5.29-1.28.69-2.54,1.06-3.8l1.12-3.78c.85-2.49,1.68-5,2.62-7.45a131.22,131.22,0,0,1,14.67-28L93.41,54c.76-1.09,1.64-2.08,2.46-3.13,1.62-2.11,3.44-4,5.21-6A99,99,0,0,1,113,34.1a83.69,83.69,0,0,1,13.72-8.41A70,70,0,0,1,142,20.5a57.38,57.38,0,0,1,32.26,2.62,68.32,68.32,0,0,1,14.27,7.82c2.1,1.69,4.31,3.27,6.23,5.15a64,64,0,0,1,5.7,5.72c7.15,8.07,12.49,17.35,16.89,26.87A227.41,227.41,0,0,1,228.21,98c6,19.9,10.09,40.13,14.71,60.08,1.81,10.09,3.73,20.13,6.38,29.95a100.88,100.88,0,0,0,4.92,14.39c2,4.61,4.59,9.13,8.48,12.54-4.31-2.88-7.54-7.19-10.24-11.63a102.63,102.63,0,0,1-6.73-14.11c-3.83-9.69-6.76-19.64-9.64-29.56-4.65-20.08-8.76-40.16-14.6-59.65A220.55,220.55,0,0,0,211,71.6c-4.2-9.11-9.25-17.82-15.76-25.15a57.12,57.12,0,0,0-5.18-5.18c-1.75-1.73-3.74-3.13-5.64-4.67a61.38,61.38,0,0,0-12.68-7,50.34,50.34,0,0,0-28.33-2.28A63,63,0,0,0,129.69,32a76.73,76.73,0,0,0-12.51,7.68,92,92,0,0,0-11,9.91c-1.64,1.86-3.35,3.65-4.87,5.63-.76,1-1.59,1.91-2.3,2.93l-2.18,3A124.24,124.24,0,0,0,83,87.66c-.89,2.34-1.68,4.72-2.49,7.09l-1.07,3.6c-.36,1.2-.73,2.4-1,3.62-.62,2.46-1.17,4.79-1.88,7.44l-1,3.88c-.37,1.29-.87,2.54-1.3,3.81a76.48,76.48,0,0,1-6.89,14.57,73.34,73.34,0,0,1-4.67,6.62l-1.26,1.59-.63.79-.69.74-2.76,3a79,79,0,0,1-12.53,10.15c-1.1.77-2.29,1.39-3.43,2.09l-1.73,1-1.77.93c-1.19.6-2.33,1.32-3.56,1.84s-2.44,1.09-3.68,1.58A116.53,116.53,0,0,1-.29,168.33,134.56,134.56,0,0,1-31.29,167.07Z"/><path class="cls-1" d="M116.75-24a200.1,200.1,0,0,0-26.56,8.49,33.15,33.15,0,0,1-3.29.95c-1.11.28-2.19.64-3.27,1-2.17.7-4.31,1.47-6.43,2.29A111.44,111.44,0,0,0,64.81-5.69,98.86,98.86,0,0,0,53.32,1.38a78.23,78.23,0,0,0-10.08,8.76,60.08,60.08,0,0,0-8.12,10.45,65.51,65.51,0,0,0-3.18,5.79l-1.36,3.06-1.25,3.14C23,49.56,20.48,68.4,13,86.28A76.63,76.63,0,0,1,6.19,99.22l-2.16,3-2.37,2.89a44.87,44.87,0,0,1-5.35,5.27,47.32,47.32,0,0,1-13.43,6.34,56,56,0,0,1-14.17,2.13A67.56,67.56,0,0,0-18.6,113.3a44.27,44.27,0,0,0,10.37-8.22C-1.6,99.5,3.13,91.84,6.59,83.55s5.88-17.22,8.22-26.22,4.57-18.2,8-27.23l1.34-3.37L25.6,23.4a72.43,72.43,0,0,1,3.56-6.48,67.07,67.07,0,0,1,9-11.62,85.22,85.22,0,0,1,11-9.58,105.81,105.81,0,0,1,12.35-7.59A139.05,139.05,0,0,1,88.3-22.32,126,126,0,0,1,116.75-24Z"/><path class="cls-1" d="M987.71-24l-.17-.33-.09-.16,0-.08s-.16,0,.08-.12l.36.64.75,1.28q.75,1.28,1.53,2.53,1.56,2.51,3.2,5,3.24,4.92,6.74,9.65,7,9.48,14.6,18.35a311,311,0,0,0,30.79,35.13A359.52,359.52,0,0,0,1120.08,104a418.28,418.28,0,0,0,86.1,36.64q22.46,6.79,45.52,11.36c15.14,4.11,30.52,7.51,46,10.65a441.31,441.31,0,0,1-47.39-3.79q-23.34-4.66-46.18-11.52a425.27,425.27,0,0,1-87.53-37.25,366.52,366.52,0,0,1-76.06-57.24A333.08,333.08,0,0,1,1009,17c-4.38-6.68-8.49-13.52-12.21-20.56-1.85-3.53-3.62-7.09-5.27-10.7q-1.22-2.72-2.35-5.48c-.37-.92-.74-1.84-1.09-2.77l-.5-1.4-.24-.71c.25-.1.09,0,.15,0l0,.09.06.18Z"/><path class="cls-1" d="M1185.67,106.29c-1-1-1.94-2.12-2.89-3.2s-1.82-2.22-2.71-3.34c-1.78-2.26-3.45-4.59-5-7-2.24-5.2-4.39-10.43-6.26-15.78a153,153,0,0,1-8-33.17,93.82,93.82,0,0,1-.44-17.31,65.91,65.91,0,0,1,3.46-17.24,52.17,52.17,0,0,1,8.67-15.56A43.73,43.73,0,0,1,1187.71-15c-1,1.08-2,2-2.86,3.15s-1.79,2.14-2.63,3.21a56.54,56.54,0,0,0-4.32,6.77,45.15,45.15,0,0,0-7.5,13.47c-3.46,9.85-3.87,20.76-2.66,31.43a146.16,146.16,0,0,0,7.63,31.63c1.83,5.15,3.82,10.26,6.11,15.23C1182.81,95.31,1184.21,100.75,1185.67,106.29Z"/><path class="cls-1" d="M298.7-24c-1.61,1.79-3.1,3.64-4.51,5.55s-2.76,3.84-4,5.82A86.8,86.8,0,0,0,283.65-.37a68.66,68.66,0,0,0-8.81,25.51,71.84,71.84,0,0,0-.29,13.51c.1,1.12.27,2.24.4,3.37l.21,1.68c.09.56.22,1.11.32,1.67l.66,3.34c.27,1.1.6,2.19.89,3.29a91.93,91.93,0,0,0,11.49,24.88l3.92,5.72c1.39,1.86,2.83,3.68,4.24,5.52l4.46,5.66c1.49,1.91,2.89,3.88,4.34,5.82a151.14,151.14,0,0,1,14.73,25.2,90.37,90.37,0,0,1,7.92,28.49,58.09,58.09,0,0,1-2,14.84,36.27,36.27,0,0,1-6.42,13.13,30.34,30.34,0,0,0,2-6.8,45.41,45.41,0,0,0,.74-6.92,64.67,64.67,0,0,0-.21-6.87,61,61,0,0,0-1.05-6.74,83.45,83.45,0,0,0-7.33-26.25,144.22,144.22,0,0,0-14-24c-1.4-1.87-2.75-3.77-4.19-5.62l-4.37-5.55c-1.48-1.93-3-3.84-4.45-5.79l-4.14-6A98.91,98.91,0,0,1,270.3,53.89c-.32-1.2-.67-2.39-1-3.6l-.73-3.66c-.12-.61-.25-1.22-.35-1.83L268,42.94c-.15-1.24-.32-2.47-.44-3.72a78.76,78.76,0,0,1,.32-15,77.81,77.81,0,0,1,9.62-28.14,80.93,80.93,0,0,1,9.7-11.18q2.67-2.52,5.51-4.8A57.4,57.4,0,0,1,298.7-24Z"/><path class="cls-1" d="M206.71-24c1.63.76,3.17,1.68,4.72,2.59s3,1.93,4.51,3c3,2.05,5.8,4.28,8.57,6.6a13.32,13.32,0,0,1,1.78,2c.55.7,1.14,1.38,1.72,2.06,1.16,1.36,2.26,2.76,3.4,4.14L234.68.6c1,1.44,2.12,2.87,3.15,4.33a220.72,220.72,0,0,1,21,37.13c2.86,6.51,5.49,13.12,7.81,19.84s4.37,13.52,6.09,20.41L274,87.48l1.14,5.2c.38,1.73.77,3.46,1.07,5.21.17.87.31,1.75.51,2.61a12.77,12.77,0,0,1,.47,2.62c.09,1.79.06,3.58.07,5.37s0,3.57,0,5.36c-.11,3.57-.31,7.14-.58,10.69-.57-1.7-1.07-3.4-1.61-5.1s-1-3.39-1.53-5.08c-1.13-3.36-2.06-6.73-3.23-10-.7-3.39-1.18-6.82-2-10.19l-1.11-5.07L266,84c-1.67-6.71-3.71-13.32-5.92-19.87s-4.81-13-7.58-19.27A213.73,213.73,0,0,0,232.12,9a164.17,164.17,0,0,0-12.85-16.1c-.95-1.45-1.93-2.88-2.92-4.32l-3.07-4.24c-1-1.42-2.1-2.81-3.19-4.19S207.88-22.64,206.71-24Z"/><path class="cls-1" d="M350.31-20c-.52,1.46-1,2.9-1.51,4.35s-1,2.88-1.43,4.33c-.89,2.9-1.8,5.75-2.6,8.63a135.13,135.13,0,0,0-6.66,16.31c-3.71,11.11-6,22.71-5.76,34.24a68.39,68.39,0,0,0,2.57,16.91l.61,2,.31,1,.4,1,1.58,4,1.93,3.79c.16.31.31.64.49.95l.57.9,1.14,1.8,1.13,1.8c.42.57.87,1.13,1.3,1.69.89,1.11,1.69,2.29,2.65,3.35l2.92,3.13a11.46,11.46,0,0,0,1.54,1.49,8.13,8.13,0,0,1,1.59,1.45l1.35,1.73.68.87.75.81c1,1.09,2,2.17,3,3.31a42.36,42.36,0,0,0,3.19,3.2c1.08,1.07,2.19,2.13,3.28,3.24a71.26,71.26,0,0,1-16.94-8,72.18,72.18,0,0,1-6.67-6.71c-1.06-1.18-2-2.49-3-3.73-.48-.63-1-1.25-1.44-1.89l-1.28-2-1.27-2-.63-1c-.2-.34-.37-.71-.55-1.06l-2.16-4.25c-.61-1.47-1.19-2.95-1.78-4.43l-.44-1.11L328.88,69l-.69-2.28A75.4,75.4,0,0,1,325.35,48c-.23-12.59,2.22-24.94,6.13-36.64a164.36,164.36,0,0,1,6.92-17.13c1.75-2.57,3.64-5,5.61-7.44q1.5-1.78,3-3.52C348.12-17.81,349.16-19,350.31-20Z"/><path class="cls-1" d="M412.61-20c-.3.84-.64,1.61-.94,2.39a20,20,0,0,0-.86,2.3,40.29,40.29,0,0,0-1.27,4.44,18.61,18.61,0,0,0-2.86,7.51c-.81,5.22,1.18,10.61,4.78,14.88a30.64,30.64,0,0,0,14.05,9.26,27.7,27.7,0,0,0,8.3,1.34,29,29,0,0,0,9.3,1.77,21.06,21.06,0,0,1-9.31,5.23,34.68,34.68,0,0,1-10.42-1.67A37.58,37.58,0,0,1,406.08,16a28.94,28.94,0,0,1-5.31-9.37,23.75,23.75,0,0,1-1-11,27.49,27.49,0,0,1,3.76-10.21,24.35,24.35,0,0,1,4.36-3.23A25.8,25.8,0,0,1,412.61-20Z"/></svg>